<svg xmlns="http://www.w3.org/2000/svg" viewBox="0 0 300 300"><defs><linearGradient id="a" x1="20.04" x2="260.54" y1="254.41" y2="61.2" gradientUnits="userSpaceOnUse"><stop offset="0" stop-color="#007ab9"/><stop offset="1" stop-color="#00b9ec"/></linearGradient></defs><g data-name="Layer 1"><circle cx="150" cy="150" r="134.84" fill="url(#a)"/><circle cx="150" cy="150" r="102.97" fill="#fff"/><circle cx="150" cy="150" r="91" fill="#fff"/><path fill="#007ab9" d="M240.88,150A90.88,90.88,0,1,1,150,59.12,90.88,90.88,0,0,1,240.88,150Zm0,0"/><path fill="#fff" d="M204.29,157.31v37.47H182.57v-35c0-8.78-3.13-14.77-11-14.77-6,0-9.56,4-11.14,7.95a14.86,14.86,0,0,0-.72,5.29v36.49H138s.3-59.21,0-65.34h21.73v9.26c0,.08-.1.15-.14.22h.14v-.22c2.89-4.44,8-10.79,19.58-10.79,14.29,0,25,9.34,25,29.4ZM115.27,98c-7.44,0-12.29,4.88-12.29,11.29s4.71,11.29,12,11.29h.14c7.58,0,12.29-5,12.29-11.29S122.7,98,115.27,98Zm-11,96.83H126V129.44H104.26Zm0,0"/></g></svg>